<svg width="154" height="36" viewBox="0 0 154 36" fill="none" xmlns="http://www.w3.org/2000/svg">
<path d="M6.98517 10.2581C7.30703 10.457 7.30703 10.9207 6.98517 11.1197L4.39894 12.7187C4.05686 12.9302 3.61314 12.6869 3.61314 12.2878L3.61314 9.08992C3.61314 8.69088 4.05686 8.4476 4.39894 8.65909L6.98517 10.2581Z" fill="#2D9BD9"/>
<rect x="8.43098" y="8.88184" width="7.22685" height="3.61343" rx="1.80671" fill="#2D9BD9"/>
<rect y="15.5068" width="12.0448" height="3.61343" rx="1.80671" fill="#5984F3"/>
<rect x="13.2492" y="15.5068" width="6.02238" height="3.61343" rx="1.80671" fill="#5984F3"/>
<rect x="3.91438" y="22.1309" width="3.61343" height="3.61343" rx="1.80671" fill="#8962FB"/>
<rect x="8.73242" y="22.1309" width="6.62462" height="3.61343" rx="1.80671" fill="#8962FB"/>
<path d="M40.1732 25V22.5718C38.988 24.2484 37.1668 25.2602 34.941 25.2602C30.7783 25.2602 27.8008 22.1671 27.8008 17.9466C27.8008 13.6394 30.7783 10.4885 34.941 10.4885C37.1668 10.4885 38.988 11.5291 40.1732 13.2347V10.7486H42.5436V25H40.1732ZM35.1722 12.7143C32.2815 12.7143 30.2291 14.9113 30.2291 17.9177C30.2291 20.8662 32.2815 23.0343 35.1722 23.0343C38.0919 23.0343 40.1732 20.8662 40.1732 17.9177C40.1732 14.9113 38.0919 12.7143 35.1722 12.7143ZM58.6073 25V22.514C57.451 24.2195 55.601 25.2602 53.3751 25.2602C49.2124 25.2602 46.235 22.1671 46.235 17.9466C46.235 13.6394 49.2124 10.4885 53.3751 10.4885C55.601 10.4885 57.451 11.5581 58.6073 13.2925V3.31944H60.9777V25H58.6073ZM53.6063 12.7143C50.7156 12.7143 48.6632 14.9113 48.6632 17.9177C48.6632 20.8662 50.7156 23.0343 53.6063 23.0343C56.526 23.0343 58.6073 20.8662 58.6073 17.9177C58.6073 14.9113 56.526 12.7143 53.6063 12.7143ZM77.0415 25V22.5718C75.8562 24.2484 74.0351 25.2602 71.8092 25.2602C67.6465 25.2602 64.6691 22.1671 64.6691 17.9466C64.6691 13.6394 67.6465 10.4885 71.8092 10.4885C74.0351 10.4885 75.8562 11.5291 77.0415 13.2347V10.7486H79.4119V25H77.0415ZM72.0405 12.7143C69.1497 12.7143 67.0973 14.9113 67.0973 17.9177C67.0973 20.8662 69.1497 23.0343 72.0405 23.0343C74.9601 23.0343 77.0415 20.8662 77.0415 17.9177C77.0415 14.9113 74.9601 12.7143 72.0405 12.7143ZM91.7754 25.2602C89.5785 25.2602 87.7284 24.2195 86.5432 22.514V32.2269H84.2017V10.7486H86.5432V13.2058C87.7284 11.5291 89.5785 10.4885 91.7754 10.4885C95.9381 10.4885 98.9156 13.6105 98.9156 17.831C98.9156 22.1382 95.9381 25.2602 91.7754 25.2602ZM96.4873 17.831C96.4873 14.8824 94.4349 12.7143 91.5442 12.7143C88.6534 12.7143 86.5432 14.8824 86.5432 17.831C86.5432 20.8373 88.6534 23.0343 91.5442 23.0343C94.4349 23.0343 96.4873 20.8373 96.4873 17.831ZM110.534 24.2484C109.551 24.9711 108.193 25.2602 107.008 25.2602C103.972 25.2602 102.122 23.9015 102.122 20.0568V6.21018H104.464V10.7486H110.361V12.9167H104.464V20.2303C104.464 22.2249 105.678 23.0054 107.21 23.0054C108.366 23.0054 109.523 22.6874 110.534 21.9647V24.2484ZM114.661 8.06025C113.793 8.06025 113.1 7.36648 113.1 6.49925C113.1 5.63203 113.793 4.93825 114.661 4.93825C115.499 4.93825 116.193 5.63203 116.193 6.49925C116.193 7.36648 115.499 8.06025 114.661 8.06025ZM113.475 25V10.7486H115.846V25H113.475ZM132.904 10.7486L125.706 25.4625L118.421 10.7486H121.196L125.822 20.5483L130.389 10.7486H132.904ZM147.678 17.5997C147.678 18.0044 147.649 18.4091 147.592 18.7849H136.347C136.693 21.3577 138.717 23.0632 141.55 23.0632C143.371 23.0632 145.134 22.5429 146.638 21.4733V23.7281C145.106 24.7687 143.371 25.2602 141.55 25.2602C137.069 25.2602 133.861 22.3694 133.861 18.0044C133.861 13.7261 136.578 10.4885 140.885 10.4885C144.99 10.4885 147.678 13.5238 147.678 17.5997ZM140.914 12.6565C138.312 12.6565 136.751 14.4777 136.376 16.877H145.192C144.961 14.4488 143.429 12.6565 140.914 12.6565Z" fill="#4B5563"/>
</svg>
